<svg xmlns="http://www.w3.org/2000/svg" width="150" height="30" viewBox="0 0 150 30"><rect width="100%" height="100%" fill="#DDDDDD"/><path fill="#999999" d="M61.4 17.395h4.34v1.67h-6.36V8.225h2.02v9.17Zm8.89-6.14q.85 0 1.56.27.7.28 1.2.79.49.51.76 1.25.27.73.27 1.64 0 .91-.27 1.65-.27.73-.76 1.25-.5.52-1.2.8-.71.27-1.56.27-.86 0-1.57-.27-.7-.28-1.2-.8t-.77-1.25q-.28-.74-.28-1.65 0-.91.28-1.64.27-.74.77-1.25t1.2-.79q.71-.27 1.57-.27Zm0 6.5q.96 0 1.42-.65.46-.64.46-1.89 0-1.24-.46-1.9-.46-.65-1.42-.65-.98 0-1.44.66-.47.66-.47 1.89 0 1.24.47 1.89.46.65 1.44.65Zm8.02-2.73q.35 0 .6-.09.26-.09.43-.26.17-.16.25-.4.09-.23.09-.5 0-.58-.34-.91-.34-.33-1.03-.33-.68 0-1.02.33-.34.33-.34.91 0 .27.09.5.08.23.25.4.17.17.43.26t.59.09Zm2.1 4.38q0-.22-.14-.36-.13-.14-.37-.22-.23-.08-.54-.12-.31-.04-.66-.06-.35-.01-.72-.03-.37-.01-.72-.06-.31.17-.5.41-.19.23-.19.53 0 .21.1.38.1.18.32.31.22.12.57.2.36.07.87.07t.89-.08q.37-.08.62-.22.24-.14.35-.33.12-.19.12-.42Zm-.37-7.77h2.21v.69q0 .33-.4.4l-.69.13q.16.4.16.87 0 .57-.23 1.03-.23.46-.63.79-.41.32-.96.49-.55.18-1.19.18-.22 0-.43-.02l-.41-.06q-.36.22-.36.49 0 .23.21.34.21.11.57.15.35.04.8.06.45.01.92.05.47.03.92.13.45.09.81.29.35.21.56.55.22.35.22.9 0 .51-.25.99-.26.48-.73.86-.48.37-1.17.6-.7.23-1.58.23-.87 0-1.52-.17-.64-.17-1.07-.45-.43-.28-.64-.65-.21-.37-.21-.77 0-.53.33-.9.33-.36.9-.58-.31-.16-.49-.42t-.18-.69q0-.17.06-.36.07-.18.19-.36t.31-.34q.19-.16.44-.29-.58-.31-.91-.84-.34-.52-.34-1.23 0-.57.23-1.03.23-.46.64-.79.41-.32.97-.5.55-.17 1.21-.17.5 0 .93.1.44.1.8.3Zm6.79-.38q.85 0 1.55.27.7.28 1.2.79t.77 1.25q.27.73.27 1.64 0 .91-.27 1.65-.27.73-.77 1.25t-1.2.8q-.7.27-1.55.27-.87 0-1.57-.27-.71-.28-1.2-.8-.5-.52-.78-1.25-.27-.74-.27-1.65 0-.91.27-1.64.28-.74.78-1.25.49-.51 1.2-.79.7-.27 1.57-.27Zm0 6.5q.96 0 1.42-.65.46-.64.46-1.89 0-1.24-.46-1.9-.46-.65-1.42-.65-.98 0-1.45.66t-.47 1.89q0 1.24.47 1.89.47.65 1.45.65Z"/></svg>